<svg xmlns="http://www.w3.org/2000/svg" width="58" height="28.526" viewBox="0 0 58 28.526">
  <g id="SAP" transform="translate(-34.436 -133.752)">
    <path id="Path_92" data-name="Path 92" d="M63.912,162.278H34.436V133.752h58Zm22.845-26.134H36.8v23.729H63.026Z" fill="#121f3e"/>
    <path id="Path_93" data-name="Path 93" d="M84.807,198.722V187.934c.183-.2.37-.142.536-.143,1.581,0,3.162-.015,4.742,0a5.349,5.349,0,1,1-.04,10.7c-.524,0-1.048,0-1.647,0v3.528H81.834l-.717-2.069a8.58,8.58,0,0,1-2.868.564,8.48,8.48,0,0,1-2.845-.568l-.713,2.085H70.623c-.016-.452.316-.8.351-1.246-3.295,1.83-6.593,1.547-10.006.311l.959-3.125c3.231,1.171,5.252,1.217,6.272.145.152-.665-.239-1.008-.783-1.249a23.175,23.175,0,0,0-3.021-.9,4.366,4.366,0,0,1-3.058-2.475,3.876,3.876,0,0,1,1.987-5.135c1.789-.844,6.382-.708,8.244.285l-1.04,2.681a17.288,17.288,0,0,0-2.868-.55,5.863,5.863,0,0,0-2.22.133c-.443.126-.822.353-.869.871a1.056,1.056,0,0,0,.632,1.063,14.9,14.9,0,0,0,3.342,1.168A6.384,6.384,0,0,1,71.6,195.6a4.821,4.821,0,0,1,.873,1.474l3.634-9.251h4.2l4.371,10.913Zm3.6-3.81c.671,0,1.285.037,1.893-.009a1.794,1.794,0,0,0,1.638-1.757,1.767,1.767,0,0,0-1.547-1.763c-.647-.054-1.3-.011-1.983-.011Zm-8.354,2.06-1.8-5.137-1.789,5.138A3.79,3.79,0,0,0,80.057,196.972Z" transform="translate(-23.036 -46.913)" fill="#121f3e"/>
  </g>
</svg>
