<svg id="Component_14_63" data-name="Component 14 – 63" xmlns="http://www.w3.org/2000/svg" width="33" height="33" viewBox="0 0 33 33">
  <rect id="Rectangle_27" data-name="Rectangle 27" width="33" height="33" rx="16.5" fill="#fff" opacity="0"/>
  <g id="instagram-logo" transform="translate(9.883 10.162)">
    <path id="Path_86" data-name="Path 86" d="M9.424,0H3.592A3.6,3.6,0,0,0,0,3.592V9.424a3.6,3.6,0,0,0,3.592,3.592H9.424a3.6,3.6,0,0,0,3.592-3.592V3.592A3.6,3.6,0,0,0,9.424,0Zm2.437,9.424a2.44,2.44,0,0,1-2.437,2.437H3.592A2.44,2.44,0,0,1,1.155,9.424V3.592A2.44,2.44,0,0,1,3.592,1.155H9.424a2.44,2.44,0,0,1,2.437,2.437V9.424Z" fill="#fff"/>
    <path id="Path_87" data-name="Path 87" d="M44.322,40.97a3.354,3.354,0,1,0,3.354,3.354A3.358,3.358,0,0,0,44.322,40.97Zm0,5.553a2.2,2.2,0,1,1,2.2-2.2A2.2,2.2,0,0,1,44.322,46.523Z" transform="translate(-37.814 -37.816)" fill="#fff"/>
    <path id="Path_88" data-name="Path 88" d="M119.768,28.251a.846.846,0,1,0,.6.248A.85.85,0,0,0,119.768,28.251Z" transform="translate(-109.765 -26.076)" fill="#fff"/>
  </g>
</svg>
