<svg id="Component_14_62" data-name="Component 14 – 62" xmlns="http://www.w3.org/2000/svg" width="33" height="33" viewBox="0 0 33 33">
  <rect id="Rectangle_27" data-name="Rectangle 27" width="33" height="33" rx="16.5" fill="#fff" opacity="0"/>
  <g id="linkedin" transform="translate(10.44 10.44)">
    <path id="Path_89" data-name="Path 89" d="M16.293,15.842h0v-4.43c0-2.167-.467-3.837-3-3.837a2.63,2.63,0,0,0-2.369,1.3h-.035v-1.1h-2.4v8.065h2.5V11.848c0-1.051.2-2.068,1.5-2.068,1.283,0,1.3,1.2,1.3,2.136v3.927Z" transform="translate(-4.216 -3.762)" fill="#fff"/>
    <path id="Path_90" data-name="Path 90" d="M.4,7.977H2.9v8.065H.4Z" transform="translate(-0.197 -3.962)" fill="#fff"/>
    <path id="Path_91" data-name="Path 91" d="M1.451,0A1.457,1.457,0,1,0,2.9,1.451,1.451,1.451,0,0,0,1.451,0Z" fill="#fff"/>
  </g>
</svg>
