<svg id="Component_14_64" data-name="Component 14 – 64" xmlns="http://www.w3.org/2000/svg" width="33" height="33" viewBox="0 0 33 33">
  <rect id="Rectangle_27" data-name="Rectangle 27" width="33" height="33" rx="16.5" fill="#fff" opacity="0"/>
  <path id="twitter" d="M13.239,1.447c-.833.038-.815.035-.909.043L12.823.082s-1.54.566-1.93.668A3.089,3.089,0,0,0,7.256.457,2.52,2.52,0,0,0,6.045,3.048,6.72,6.72,0,0,1,1.691.6L1.326.158l-.273.5A3.029,3.029,0,0,0,.73,2.7a2.929,2.929,0,0,0,.284.8L.7,3.373.664,3.9a2.793,2.793,0,0,0,.474,1.66,2.953,2.953,0,0,0,.369.455l-.162-.025.2.6a2.916,2.916,0,0,0,1.5,1.737c-.7.3-1.264.486-2.192.791L0,9.394l.784.429a8.233,8.233,0,0,0,2.4.874c2.321.364,4.934.068,6.694-1.517a6.3,6.3,0,0,0,1.867-5.209,1.234,1.234,0,0,1,.231-.8c.329-.439,1.261-1.717,1.263-1.72Z" transform="translate(10 11)" fill="#fff"/>
</svg>
