<svg xmlns="http://www.w3.org/2000/svg" width="156" height="128.319" viewBox="0 0 156 128.319"><g transform="translate(-644 -3816.681)"><text transform="translate(644 3935)" fill="#313131" font-size="40" font-family="SegoeUI, Segoe UI"><tspan x="0" y="0">8+ Cities</tspan></text><g transform="translate(685.963 3816.681)"><path d="M367.61,297.468a6.966,6.966,0,1,0-5.266,2.407A6.959,6.959,0,0,0,367.61,297.468Zm-10.2-4.559a4.93,4.93,0,0,1,1.2-3.229h0a4.934,4.934,0,1,1-1.2,3.229Z" transform="translate(-300.886 -247.228)" fill="#313131"/><path d="M331.666,243.533a13.231,13.231,0,0,0-21.653,14.3,1.016,1.016,0,0,0,1.882-.766,11.208,11.208,0,1,1,19.377,2.469l-5.526,7.62a12.081,12.081,0,0,0-2.04,4.567l-.414,1.914a1.037,1.037,0,0,1-2.026,0l-.414-1.914a12.079,12.079,0,0,0-2.041-4.567l-4.774-6.583a1.016,1.016,0,0,0-1.645,1.193l4.774,6.583a10.059,10.059,0,0,1,1.7,3.8l.414,1.914a3.069,3.069,0,0,0,6,0l.414-1.914a10.061,10.061,0,0,1,1.7-3.8l5.519-7.61a13.207,13.207,0,0,0-1.244-17.2Z" transform="translate(-260.82 -207.166)" fill="#313131"/><path d="M50.26,49.109a5.78,5.78,0,0,0,5.248-8.2,1.016,1.016,0,0,0-1.845.853,3.747,3.747,0,1,1-3.4-2.178,3.811,3.811,0,0,1,.573.043,1.016,1.016,0,1,0,.307-2.009,5.843,5.843,0,0,0-.88-.067,5.78,5.78,0,0,0,0,11.561Z" transform="translate(-32.08 -32.464)" fill="#313131"/><path d="M13.923,23.78a7.85,7.85,0,0,1,1.327,2.969l.331,1.533a2.66,2.66,0,0,0,5.2,0l.331-1.532a7.85,7.85,0,0,1,1.327-2.969l4.417-6.091A10.8,10.8,0,1,0,7.377,11.25,10.705,10.705,0,0,0,9.5,17.679ZM12.052,4.975a8.7,8.7,0,0,1,6.127-2.5l.214,0a8.771,8.771,0,0,1,6.825,14l-4.424,6.1a9.874,9.874,0,0,0-1.668,3.733l-.331,1.532a.627.627,0,0,1-1.226,0l-.331-1.532a9.872,9.872,0,0,0-1.668-3.733l-4.431-6.11a8.771,8.771,0,0,1,.915-11.5Z" transform="translate(0 -0.386)" fill="#313131"/><path d="M392.768,42.375a1.016,1.016,0,1,0,1.5,1.371l.018-.019c.024-.026.049-.053.071-.079a4.894,4.894,0,0,0-7.382-6.428,1.016,1.016,0,0,0,1.529,1.339,2.862,2.862,0,0,1,4.316,3.759Z" transform="translate(-327.988 -30.736)" fill="#313131"/><path d="M356.7,5.47a1.016,1.016,0,0,0,1.418-.232,7.675,7.675,0,1,1,12.394,9.054l-1.05,1.449a1.016,1.016,0,1,0,1.645,1.193l1.043-1.439A9.707,9.707,0,1,0,356.465,4.052a1.134,1.134,0,0,0,.071,1.273,1.009,1.009,0,0,0,.162.145Z" transform="translate(-301.683 0)" fill="#313131"/><path d="M65.533,86.263a1.015,1.015,0,0,0-1.774-.682,21.4,21.4,0,0,1-2,1.976,28.362,28.362,0,0,1-4.394,1.135,42.143,42.143,0,0,0,2.848-9.851,1.016,1.016,0,0,0-2-.366,35.331,35.331,0,0,1-3.3,10.537q-1.272.111-2.566.113c-.866,0-1.721-.04-2.568-.116-1.5-2.59-2.733-6.922-3.575-12.222,2.011.163,4.066.248,6.143.248,1.924,0,3.866-.073,5.772-.216a1.016,1.016,0,0,0-.153-2.027c-1.856.14-3.746.211-5.62.211-2.185,0-4.341-.1-6.444-.28a109.8,109.8,0,0,1-.911-13.434H61.472a1.016,1.016,0,0,0,.263-2,112.323,112.323,0,0,0-.858-13.256,61.033,61.033,0,0,1,9.561,1.868,44.815,44.815,0,0,1,1.349,7.03,1.016,1.016,0,0,0,1.009.9,1.031,1.031,0,0,0,.113-.006,1.016,1.016,0,0,0,.9-1.122,47.156,47.156,0,0,0-1.082-6.094,33.809,33.809,0,0,1,7.266,3.377,28.714,28.714,0,0,1,1.051,5.264,1.016,1.016,0,0,0,1.009.911,1.006,1.006,0,0,0,.106-.006,1.016,1.016,0,0,0,.906-1.116A30.91,30.91,0,0,0,43.151,30.783a1.016,1.016,0,0,0,.6,1.941,28.641,28.641,0,0,1,3.577-.866,46.874,46.874,0,0,0-3.225,12.1c-1.157.127-2.3.278-3.43.458A1.016,1.016,0,1,0,41,46.423q1.392-.223,2.817-.39-.244,1.9-.422,3.935a1.016,1.016,0,0,0,.923,1.1c.03,0,.06,0,.09,0a1.016,1.016,0,0,0,1.011-.928c.131-1.489.291-2.932.478-4.321,2.115-.184,4.271-.281,6.452-.281s4.341.1,6.444.28A109.8,109.8,0,0,1,59.7,59.257H44.995c.013-1.619.057-3.236.134-4.82a1.016,1.016,0,1,0-2.03-.1c-.078,1.617-.123,3.267-.136,4.919H32.627c.007-.3.016-.6.028-.913a1.016,1.016,0,1,0-2.031-.08c-.013.343-.023.672-.03.993H23.516A28.787,28.787,0,0,1,24.9,51.37a1.016,1.016,0,0,0-1.933-.627,30.9,30.9,0,0,0,42.7,37.4,1.015,1.015,0,0,0-.129-1.883Zm-4.946-42.3a46.885,46.885,0,0,0-3.221-12.1A28.773,28.773,0,0,1,61.767,33a26.7,26.7,0,0,1,6.491,8.939,36.787,36.787,0,0,1,1.474,3.676,64.938,64.938,0,0,0-9.145-1.655ZM78.93,49.043a40.984,40.984,0,0,0-6.849-2.763,39.74,39.74,0,0,0-1.981-5.2,32.154,32.154,0,0,0-3.562-5.929A28.927,28.927,0,0,1,78.93,49.043ZM52.348,43.512c-2.074,0-4.128.084-6.148.246.854-5.337,2.112-9.674,3.583-12.222q1.276-.112,2.565-.114t2.567.115c1.5,2.59,2.734,6.923,3.576,12.223C56.479,43.6,54.425,43.512,52.348,43.512ZM47.331,88.687a28.6,28.6,0,0,1-4.406-1.144,28.827,28.827,0,0,1-7.965-12.611,64.983,64.983,0,0,0,9.148,1.654A46.889,46.889,0,0,0,47.331,88.687ZM43.818,74.51a61.019,61.019,0,0,1-9.566-1.87A46.326,46.326,0,0,1,32.626,61.29H42.961A112.349,112.349,0,0,0,43.818,74.51Zm-20.3-13.22h7.077a48.637,48.637,0,0,0,1.379,10.641,33.828,33.828,0,0,1-7.263-3.374A28.727,28.727,0,0,1,23.517,61.29Zm2.258,10.22a41.012,41.012,0,0,0,6.844,2.758,35.415,35.415,0,0,0,5.517,11.106A29.032,29.032,0,0,1,25.775,71.51Z" transform="translate(-12.181 -25.411)" fill="#313131"/></g></g></svg>