<svg xmlns="http://www.w3.org/2000/svg" width="211" height="129.319" viewBox="0 0 211 129.319"><g transform="translate(-1036 -3816.681)"><text transform="translate(1036 3936)" fill="#313131" font-size="38" font-family="SegoeUI, Segoe UI"><tspan x="0" y="0">200+ Clients</tspan></text><g transform="translate(1111.668 3795.214)"><g transform="translate(0 21.467)"><path d="M69.183,41.623H66V39.574l1.988-2.189a6.15,6.15,0,0,0,1.6-4.143V28.051A6.591,6.591,0,0,0,63,21.467H59.973a6.591,6.591,0,0,0-6.584,6.584v5.192a6.151,6.151,0,0,0,1.6,4.143l1.988,2.19v2.048H53.792a6.491,6.491,0,0,0-6.328,5.088,7.168,7.168,0,0,0-.994-.071H42.738V44.134l2.276-2.507a6.784,6.784,0,0,0,1.765-4.569V31.211a7.279,7.279,0,0,0-7.271-7.271,1.137,1.137,0,0,0,0,2.275,5,5,0,0,1,5,5v5.847A4.514,4.514,0,0,1,43.33,40.1L40.986,42.68a1.136,1.136,0,0,0-.523.957v4.141A1.137,1.137,0,0,0,41.6,48.915H46.47a4.885,4.885,0,0,1,4.88,4.88v7.138H24.255V53.8a4.888,4.888,0,0,1,3.192-4.579,1.122,1.122,0,0,0,.25-.085,4.867,4.867,0,0,1,1.438-.216H34a1.137,1.137,0,0,0,1.137-1.137V43.637a1.137,1.137,0,0,0-.523-.957L32.275,40.1a4.514,4.514,0,0,1-1.174-3.04V31.211a5,5,0,0,1,5-5,1.137,1.137,0,1,0,0-2.275,7.279,7.279,0,0,0-7.271,7.271v5.847a6.785,6.785,0,0,0,1.765,4.569l2.276,2.507V46.64H29.135a7.157,7.157,0,0,0-.937.063,6.49,6.49,0,0,0-6.326-5.081H18.685V39.574l1.988-2.189a6.15,6.15,0,0,0,1.6-4.143V28.051a6.591,6.591,0,0,0-6.584-6.584H12.662a6.591,6.591,0,0,0-6.584,6.584v5.192a6.15,6.15,0,0,0,1.6,4.143l1.988,2.189v2.049H6.48A6.488,6.488,0,0,0,0,48.1V55.45a1.137,1.137,0,0,0,1.137,1.137h17.7a1.137,1.137,0,0,0,0-2.275H2.275V48.1A4.21,4.21,0,0,1,6.48,43.9H10.8a1.137,1.137,0,0,0,1.137-1.137V39.084a1.136,1.136,0,0,0-.509-.948l-2.07-2.28a3.88,3.88,0,0,1-1.009-2.613V28.051a4.314,4.314,0,0,1,4.309-4.309H15.69A4.314,4.314,0,0,1,20,28.051v5.192a3.879,3.879,0,0,1-1.009,2.613l-2.07,2.28a1.136,1.136,0,0,0-.508.948V42.76A1.137,1.137,0,0,0,17.548,43.9h4.323a4.211,4.211,0,0,1,4.138,3.462,7.162,7.162,0,0,0-4.029,6.435V62.07a1.137,1.137,0,0,0,1.137,1.137H52.487a1.137,1.137,0,0,0,1.137-1.137V53.795a7.162,7.162,0,0,0-3.975-6.407,4.211,4.211,0,0,1,4.143-3.49h4.323a1.137,1.137,0,0,0,1.137-1.137V39.083a1.136,1.136,0,0,0-.509-.948l-2.07-2.28a3.879,3.879,0,0,1-1.009-2.613V28.051a4.314,4.314,0,0,1,4.309-4.309H63a4.314,4.314,0,0,1,4.309,4.309v5.192A3.879,3.879,0,0,1,66.3,35.856l-2.07,2.28a1.136,1.136,0,0,0-.508.948V42.76A1.137,1.137,0,0,0,64.86,43.9h4.323A4.21,4.21,0,0,1,73.389,48.1v6.21H57.024a1.137,1.137,0,1,0,0,2.275h17.5a1.137,1.137,0,0,0,1.137-1.137V48.1A6.487,6.487,0,0,0,69.183,41.623Z" transform="translate(0 -21.467)" fill="#313131"/></g><g transform="translate(27.192 69.622)"><g transform="translate(0 0)"><path d="M206.079,355.326a1.137,1.137,0,0,0-.9-.771l-6.214-1.02-2.89-5.594a1.137,1.137,0,0,0-2.021,0l-2.89,5.594-6.214,1.02a1.138,1.138,0,0,0-.625,1.922l4.427,4.477-.95,6.225a1.137,1.137,0,0,0,1.635,1.188l5.626-2.827,5.626,2.827a1.137,1.137,0,0,0,1.635-1.188l-.95-6.225,4.427-4.477A1.136,1.136,0,0,0,206.079,355.326Zm-6.72,4.435a1.138,1.138,0,0,0-.316.971l.7,4.613-4.17-2.095a1.137,1.137,0,0,0-1.021,0l-4.17,2.095.7-4.613a1.137,1.137,0,0,0-.316-.971l-3.281-3.318,4.6-.756a1.138,1.138,0,0,0,.826-.6l2.142-4.146,2.142,4.146a1.138,1.138,0,0,0,.826.6l4.6.756Z" transform="translate(-184 -347.325)" fill="#313131"/></g></g><g transform="translate(52.091 61.259)"><g transform="translate(0 0)"><path d="M374.567,298.729a1.138,1.138,0,0,0-.9-.771l-6.214-1.02-2.89-5.594a1.137,1.137,0,0,0-2.021,0l-2.89,5.594-6.214,1.02a1.138,1.138,0,0,0-.625,1.922l4.427,4.477-.95,6.225a1.138,1.138,0,0,0,1.635,1.188l5.626-2.827,5.626,2.827a1.138,1.138,0,0,0,1.635-1.188l-.95-6.225,4.427-4.477A1.136,1.136,0,0,0,374.567,298.729Zm-6.72,4.435a1.138,1.138,0,0,0-.316.971l.7,4.613-4.17-2.095a1.137,1.137,0,0,0-1.021,0l-4.17,2.095.7-4.613a1.138,1.138,0,0,0-.316-.971l-3.281-3.318,4.6-.756a1.138,1.138,0,0,0,.826-.6l2.142-4.146,2.142,4.146a1.138,1.138,0,0,0,.826.6l4.6.756Z" transform="translate(-352.488 -290.728)" fill="#313131"/></g></g><g transform="translate(2.292 61.259)"><g transform="translate(0 0)"><path d="M37.591,298.729a1.138,1.138,0,0,0-.9-.771l-6.214-1.02-2.89-5.594a1.138,1.138,0,0,0-2.021,0l-2.89,5.595-6.214,1.02a1.138,1.138,0,0,0-.625,1.922l4.427,4.477-.95,6.225a1.138,1.138,0,0,0,1.635,1.188l5.626-2.827,5.626,2.827a1.138,1.138,0,0,0,1.635-1.188l-.95-6.225,4.427-4.477A1.137,1.137,0,0,0,37.591,298.729Zm-6.72,4.435a1.138,1.138,0,0,0-.316.971l.7,4.613-4.17-2.095a1.137,1.137,0,0,0-1.021,0l-4.17,2.095.7-4.613a1.137,1.137,0,0,0-.316-.971l-3.281-3.318,4.6-.756a1.138,1.138,0,0,0,.826-.6l2.142-4.146,2.142,4.146a1.138,1.138,0,0,0,.826.6l4.6.756Z" transform="translate(-15.512 -290.728)" fill="#313131"/></g></g></g></g></svg>