<svg width="169" height="40" viewBox="0 0 169 40" fill="none" xmlns="http://www.w3.org/2000/svg">
<g clip-path="url(#clip0)">
<path d="M7.96142 12.8294C7.91943 12.8628 7.88506 12.9048 7.86062 12.9525C7.83619 13.0003 7.82225 13.0527 7.81975 13.1063C7.81724 13.1599 7.82623 13.2134 7.84611 13.2632C7.86599 13.3131 7.89629 13.3581 7.935 13.3952C8.88328 14.2845 10.4752 14.9063 12.3251 14.7011C15.0192 14.3902 15.5508 13.4155 17.2904 12.8247C16.6297 12.4858 15.9628 12.1516 15.2695 11.8531C14.0742 11.3533 12.7674 11.1803 11.4833 11.3518C10.1991 11.5234 8.98361 12.0333 7.96142 12.8294Z" fill="#35F5C6"/>
<path d="M22.6956 18.3947C24.8149 19.357 27.1035 19.8912 29.4299 19.9663C31.5778 19.9516 33.6668 19.2633 35.4026 17.9982C35.4294 17.9772 35.4511 17.9502 35.466 17.9195C35.481 17.8888 35.4887 17.8552 35.4887 17.821C35.4887 17.7869 35.481 17.7532 35.466 17.7225C35.4511 17.6918 35.4294 17.6649 35.4026 17.6438C33.8092 16.1965 31.4431 16.0084 29.4035 16.2882C27.0375 16.6162 25.0103 17.8785 22.6956 18.3947Z" fill="#35F5C6"/>
<path d="M19.5274 29.5581C18.3507 29.8001 17.1532 29.9266 15.9519 29.9358C13.2257 29.8915 10.5732 29.0436 8.32678 27.4983C8.31394 27.4894 8.30314 27.478 8.29511 27.4646C8.28708 27.4513 8.28201 27.4364 8.28024 27.4209C8.27848 27.4054 8.28005 27.3897 8.28486 27.3749C8.28967 27.3601 8.2976 27.3465 8.30812 27.335C8.79315 26.8158 10.2016 26.6526 11.1763 26.7023C12.2521 26.7583 13.3869 27.1018 14.4005 27.4796C16.196 28.1589 17.5609 29.2953 19.5306 29.5472" fill="#35F5C6"/>
<path d="M8.28003 27.4174C8.282 27.4713 8.29524 27.5243 8.31889 27.5728L8.34066 27.607C9.60475 29.6108 11.3297 31.2832 13.3715 32.4848C15.4133 33.6864 17.7129 34.3823 20.0784 34.5145C22.4438 34.6467 24.8066 34.2113 26.9696 33.2448C29.1326 32.2782 31.0332 30.8084 32.5126 28.9579C33.1765 28.1294 31.6981 27.6863 31.1586 27.5728C30.2319 27.4047 29.2812 27.42 28.3604 27.6179C25.8218 28.0936 23.3547 28.8833 20.8114 29.3481C17.7893 29.8985 14.6289 30.1829 11.6768 29.1662C10.5094 28.7744 9.40073 28.2258 8.38108 27.5355C8.38108 27.5355 8.29247 27.4827 8.28003 27.4174Z" fill="#363A77"/>
<path d="M29.43 19.7844C32.0945 19.7844 34.0937 18.8937 35.171 18.1614C35.2819 18.0899 35.3788 17.9988 35.4571 17.8925C35.4813 17.8445 35.4879 17.7895 35.4757 17.7371L35.5674 18.0029C35.663 18.2799 35.7206 18.5685 35.7384 18.861C35.7384 18.8968 35.7384 18.931 35.7384 18.9605C35.749 19.2293 35.7068 19.4976 35.6141 19.7502C33.091 26.0478 21.3214 26.183 21.3214 26.183C12.1852 26.183 8.0096 22.9557 6.39751 21.154C6.1917 20.9246 6.07288 20.6303 6.06173 20.3223C6.06173 20.156 6.05396 19.9896 6.05396 19.8217C6.05396 19.7487 6.05396 19.6772 6.05396 19.6041C6.05494 19.4588 6.08503 19.3151 6.14243 19.1816C6.19984 19.0481 6.2834 18.9275 6.38819 18.8268C9.74761 15.5778 18.5138 16.2431 22.0349 18.0728C22.0318 18.0713 25.8483 19.7844 29.43 19.7844Z" fill="#363A77"/>
<path d="M17.2904 12.8246C16.6339 12.4662 15.9594 12.1419 15.2695 11.853C14.1116 11.371 12.8494 11.1945 11.6038 11.3404C10.3581 11.4863 9.17087 11.9498 8.15576 12.6863C8.00429 12.7886 7.88811 12.9352 7.82308 13.106C7.8212 12.9157 7.85169 12.7264 7.91325 12.5463C8.15333 11.8954 8.4909 11.2848 8.91439 10.7353C9.49424 9.95021 10.2575 9.28019 10.9835 8.62727C13.8334 6.06833 17.5613 4.70884 21.3894 4.83252C25.2175 4.95621 28.85 6.55351 31.5287 9.29107C31.688 9.45648 31.7893 9.66914 31.8173 9.89707C31.8453 10.125 31.7986 10.3559 31.6842 10.5549C30.3507 12.5996 28.2978 14.0689 25.9323 14.6714C25.9323 14.6714 22.1593 15.528 17.2904 12.8246Z" fill="#363A77"/>
<path d="M55.166 22.5003L57.6238 24.958L56.4143 26.1675C55.6017 26.9855 54.6353 27.6348 53.5708 28.0778C52.5063 28.5208 51.3646 28.7489 50.2116 28.7489C49.0586 28.7489 47.9169 28.5208 46.8524 28.0778C45.7878 27.6348 44.8215 26.9855 44.0089 26.1675C43.1745 25.3447 42.5239 24.3545 42.0999 23.262C41.6898 22.211 41.4789 21.0929 41.478 19.9648C41.4778 18.8431 41.6887 17.7314 42.0999 16.6877C42.5283 15.6023 43.1797 14.6188 44.012 13.8009C44.8379 12.9643 45.8276 12.307 46.919 11.8701C49.033 11.01 51.3995 11.01 53.5135 11.8701C54.6044 12.3072 55.5935 12.9645 56.419 13.8009L57.6284 15.0104L47.9139 24.7249C48.8994 25.2186 50.0162 25.3863 51.1032 25.2039C52.1902 25.0214 53.191 24.4982 53.9612 23.7097L55.166 22.5003ZM46.4604 16.2198C45.6751 16.992 45.1541 17.9926 44.9717 19.0788C44.7894 20.1649 44.9552 21.2808 45.4453 22.2671L46.8693 20.8431L48.8902 18.8222C49.6053 18.1071 50.295 17.4241 50.9593 16.7732C51.6237 16.1224 52.1424 15.6125 52.5155 15.2435C51.5459 14.7536 50.4482 14.5765 49.3737 14.7368C48.2662 14.8926 47.2428 15.4147 46.4666 16.2198H46.4604Z" fill="#363A77"/>
<path d="M66.8842 19.9648C66.8732 18.7899 67.1056 17.6255 67.5666 16.5447C68.4574 14.4491 70.1306 12.7838 72.2303 11.9028C73.3083 11.4513 74.4653 11.2188 75.6341 11.2188C76.8028 11.2188 77.9598 11.4513 79.0378 11.9028C80.0755 12.3455 81.0213 12.9782 81.8267 13.7683C82.6321 14.5594 83.2748 15.5005 83.7186 16.5385C84.17 17.6165 84.4025 18.7735 84.4025 19.9423C84.4025 21.111 84.17 22.268 83.7186 23.346C82.8226 25.4578 81.1457 27.1419 79.0378 28.047C77.9598 28.4985 76.8028 28.731 75.6341 28.731C74.4653 28.731 73.3083 28.4985 72.2303 28.047C71.1845 27.6066 70.2361 26.9636 69.4399 26.1551C68.6462 25.345 68.0132 24.3918 67.5744 23.346C67.1166 22.2776 66.8817 21.1271 66.8842 19.9648ZM70.3167 19.9648C70.3167 21.372 70.8756 22.7215 71.8707 23.7165C72.8657 24.7115 74.2152 25.2705 75.6224 25.2705C77.0296 25.2705 78.3791 24.7115 79.3741 23.7165C80.3691 22.7215 80.9281 21.372 80.9281 19.9648C80.9326 19.2611 80.7935 18.5639 80.5193 17.9159C80.2522 17.2898 79.8681 16.7205 79.3876 16.2385C78.7723 15.6217 78.015 15.1655 77.1821 14.91C76.3492 14.6545 75.4663 14.6075 74.6111 14.7731C73.7558 14.9388 72.9543 15.312 72.277 15.86C71.5998 16.408 71.0675 17.114 70.7271 17.9159C70.4516 18.5636 70.3119 19.2609 70.3167 19.9648Z" fill="#363A77"/>
<path d="M88.4258 13.7232C89.25 12.8891 90.2368 12.2335 91.3251 11.797C93.439 10.939 95.8042 10.939 97.918 11.797C99.0098 12.234 99.9995 12.8919 100.825 13.7294L102.035 14.9388L99.6187 17.3935L98.3751 16.184C97.8761 15.6781 97.2788 15.2797 96.62 15.0134C95.3444 14.4931 93.9158 14.4931 92.6403 15.0134C91.9806 15.2789 91.3826 15.6774 90.8836 16.184C90.3746 16.6626 89.9757 17.2461 89.7146 17.8941C89.1943 19.1696 89.1943 20.5982 89.7146 21.8738C89.9805 22.5324 90.3783 23.1297 90.8836 23.6289C91.3689 24.1301 91.9516 24.5266 92.596 24.794C93.2403 25.0613 93.9326 25.1939 94.6301 25.1834C95.3225 25.1834 96.0084 25.0509 96.6511 24.7932C97.2995 24.5322 97.8831 24.1327 98.3611 23.6226L99.6047 22.4132L102.024 24.871L100.814 26.0804C99.9882 26.917 98.9986 27.5743 97.9072 28.0112C95.7933 28.8692 93.4281 28.8692 91.3142 28.0112C90.2305 27.5743 89.2476 26.9205 88.4258 26.0897C87.594 25.2718 86.9431 24.2883 86.5153 23.2029C85.6821 21.0842 85.6821 18.7287 86.5153 16.61C86.9431 15.5246 87.594 14.5411 88.4258 13.7232Z" fill="#363A77"/>
<path d="M117.132 22.5003L119.59 24.958L118.381 26.1675C117.568 26.9855 116.602 27.6348 115.537 28.0778C114.473 28.5208 113.331 28.7489 112.178 28.7489C111.025 28.7489 109.883 28.5208 108.819 28.0778C107.754 27.6348 106.788 26.9855 105.975 26.1675C105.139 25.3454 104.488 24.355 104.063 23.262C103.653 22.211 103.442 21.0929 103.441 19.9648C103.441 18.8431 103.652 17.7314 104.063 16.6877C104.491 15.602 105.143 14.6184 105.975 13.8009C106.801 12.9645 107.79 12.3072 108.881 11.8701C110.995 11.01 113.361 11.01 115.475 11.8701C116.566 12.3072 117.555 12.9645 118.381 13.8009L119.59 15.0104L109.879 24.7249C110.864 25.2186 111.981 25.3863 113.068 25.2039C114.155 25.0214 115.156 24.4982 115.926 23.7097L117.132 22.5003ZM108.427 16.2198C107.642 16.992 107.121 17.9926 106.938 19.0788C106.756 20.1649 106.922 21.2808 107.412 22.2671L108.836 20.8431L110.857 18.8222C111.572 18.1071 112.261 17.4241 112.924 16.7732C113.588 16.1224 114.102 15.6151 114.466 15.2513C113.497 14.7615 112.399 14.5844 111.325 14.7445C110.224 14.9016 109.206 15.4206 108.433 16.2198H108.427Z" fill="#363A77"/>
<path d="M129.499 11.1472C130.674 11.1364 131.839 11.3693 132.919 11.8313C135.003 12.7248 136.662 14.3875 137.55 16.4732C138.011 17.5541 138.243 18.7184 138.233 19.8932V28.6641H129.499C128.333 28.6704 127.178 28.4382 126.105 27.9817C123.987 27.0858 122.3 25.3995 121.404 23.2807C120.954 22.2024 120.722 21.0455 120.722 19.8769C120.722 18.7084 120.954 17.5514 121.404 16.4732C121.848 15.435 122.491 14.4938 123.296 13.703C124.106 12.9093 125.06 12.2763 126.105 11.8375C127.178 11.3783 128.333 11.1434 129.499 11.1472ZM134.766 25.1928V19.8808C134.771 19.177 134.632 18.4797 134.357 17.8319C133.82 16.5671 132.813 15.56 131.548 15.0228C130.9 14.7483 130.203 14.6091 129.499 14.6139C128.456 14.6064 127.435 14.9081 126.564 15.4808C125.692 16.0536 125.01 16.8717 124.604 17.8319C124.328 18.4796 124.188 19.1769 124.193 19.8808C124.191 20.5783 124.326 21.2695 124.592 21.9144C124.857 22.5593 125.248 23.1453 125.741 23.6385C126.235 24.1317 126.821 24.5224 127.466 24.7881C128.11 25.0538 128.802 25.1892 129.499 25.1866L134.766 25.1928Z" fill="#363A77"/>
<path d="M141.238 16.5121C142.13 14.4173 143.802 12.7522 145.901 11.8702C146.979 11.4187 148.136 11.1862 149.305 11.1862C150.474 11.1862 151.631 11.4187 152.709 11.8702C153.75 12.3119 154.699 12.9446 155.507 13.7357C156.311 14.5277 156.954 15.4686 157.399 16.5059C157.86 17.5868 158.092 18.7511 158.081 19.926V28.7031H154.599V19.926C154.602 19.2218 154.461 18.5244 154.184 17.877C153.776 16.9175 153.094 16.1 152.222 15.5274C151.351 14.9548 150.33 14.6527 149.287 14.6591C148.587 14.6533 147.892 14.7903 147.246 15.0617C145.98 15.6004 144.973 16.6099 144.437 17.877C144.162 18.5249 144.023 19.2222 144.028 19.926V28.7031H140.555V19.926C140.545 18.7531 140.777 17.5909 141.238 16.5121Z" fill="#363A77"/>
<path d="M62.6775 31.3598C63.773 31.3598 64.6611 30.4717 64.6611 29.3762C64.6611 28.2806 63.773 27.3925 62.6775 27.3925C61.582 27.3925 60.6938 28.2806 60.6938 29.3762C60.6938 30.4717 61.582 31.3598 62.6775 31.3598Z" fill="#35F5C6"/>
</g>
<defs>
<clipPath id="clip0">
<rect width="153.282" height="32.0754" fill="white" transform="translate(4.79004 4.0242)"/>
</clipPath>
</defs>
</svg>
