<?xml version="1.0" encoding="utf-8"?>
<!-- Generator: Adobe Illustrator 23.0.0, SVG Export Plug-In . SVG Version: 6.00 Build 0)  -->
<svg version="1.1" id="Layer_1" xmlns="http://www.w3.org/2000/svg" xmlns:xlink="http://www.w3.org/1999/xlink" x="0px" y="0px"
	 viewBox="0 0 1000 1000" style="enable-background:new 0 0 1000 1000;" xml:space="preserve">
<style type="text/css">
	.st0{fill:#F9F9F9;}
	.st1{fill:#F1F1F1;}
	.st2{fill:#FC1010;}
</style>
<rect class="st0" width="1000" height="1004.9"/>
<rect class="st1" width="1000" height="1000"/>
<path class="st2" d="M429.7,534.7c-1.8,0.3-4,0.9-6.2,0.9c-60.3,0.1-120.6,0-180.9,0.1c-5.7,0-7.7-1.6-7.6-7.4
	c0.3-19.5,0.2-38.9,0.1-58.4c0-4.4,0.6-7.2,6.1-7.2c61.7,0.2,123.4,0.1,185,0.2c1,0,2.1,0.4,3.5,0.7
	C429.7,487.1,429.7,510.3,429.7,534.7z"/>
<path class="st2" d="M529.9,750.9c-22.1,0-44.4,0-67.4,0c0-67.6,0-135.6,0-204.3c22.7,0,44.8,0,67.4,0
	C529.9,614.7,529.9,682.5,529.9,750.9z"/>
<path class="st2" d="M529.9,453.3c-22.3,0-44.6,0-67.8,0c0-68.2,0-136,0-204.2c22.7,0,45,0,67.8,0
	C529.9,317.1,529.9,384.9,529.9,453.3z"/>
<path class="st2" d="M757.2,471.8c-0.5,18.9-0.2,37.8-0.1,56.7c0,4.4-0.4,7.2-6.1,7.2c-61.7-0.1-123.3-0.1-185-0.2
	c-1,0-2.1-0.4-3.5-0.7c0-23.7,0-47.1,0-71.6c2.9-0.1,5.7-0.4,8.6-0.4c58.9,0,117.9,0.1,176.8-0.2C755,462.7,757.5,464.3,757.2,471.8
	z"/>
</svg>
