<?xml version="1.0" encoding="utf-8"?>
<!-- Generator: Adobe Illustrator 23.0.0, SVG Export Plug-In . SVG Version: 6.00 Build 0)  -->
<svg version="1.1" id="Layer_1" xmlns="http://www.w3.org/2000/svg" xmlns:xlink="http://www.w3.org/1999/xlink" x="0px" y="0px"
	 viewBox="0 0 1000 1000" style="enable-background:new 0 0 1000 1000;" xml:space="preserve">
<style type="text/css">
	.st0{fill:#F9F9F9;}
</style>
<path class="st0" d="M-735.3-0.6v1001.1H1733V-0.6H-735.3z M396.6,552.8c-2.8,0.4-6.2,1.4-9.6,1.4c-93,0.1-186.1,0-279.1,0.2
	c-8.8,0-11.8-2.5-11.7-11.5c0.5-30,0.3-60,0.1-90.1c-0.1-6.9,0.9-11.1,9.4-11c95.2,0.2,190.3,0.2,285.5,0.3c1.6,0,3.2,0.6,5.4,1.1
	C396.6,479.4,396.6,515.2,396.6,552.8z M551.1,886.4c-34.1,0-68.5,0-104,0c0-104.3,0-209.2,0-315.3c35,0,69.1,0,104,0
	C551.1,676.2,551.1,780.8,551.1,886.4z M551.2,427.3c-34.4,0-68.8,0-104.6,0c0-105.2,0-209.8,0-315.1c35,0,69.4,0,104.6,0
	C551.2,217.1,551.2,321.7,551.2,427.3z M901.9,455.8c-0.8,29.1-0.4,58.3-0.2,87.5c0,6.8-0.7,11.2-9.3,11.1
	c-95.2-0.2-190.3-0.2-285.4-0.2c-1.6,0-3.2-0.6-5.5-1c0-36.5,0-72.7,0-110.5c4.4-0.2,8.8-0.6,13.3-0.6c90.9,0,181.8,0.1,272.8-0.3
	C898.4,441.7,902.2,444.3,901.9,455.8z"/>
</svg>
