<svg xmlns="http://www.w3.org/2000/svg" width="263" height="129.319" viewBox="0 0 263 129.319"><g transform="translate(-1425 -3816.681)"><text transform="translate(1425 3936)" fill="#313131" font-size="38" font-family="SegoeUI, Segoe UI"><tspan x="0" y="0">400+ Recruiters</tspan></text><g transform="translate(1532.355 3816.681)"><path d="M417.488,116.962a27.709,27.709,0,0,0-1.307-8.431l-2.2.7a25.469,25.469,0,0,1-3.246,22.093l1.9,1.3A27.557,27.557,0,0,0,417.488,116.962Zm0,0" transform="translate(-355.126 -93.838)" fill="#313131"/><path d="M64.57,3.594l-1.3-1.907A27.755,27.755,0,0,0,52.481,33.014l2.2-.7A25.447,25.447,0,0,1,64.57,3.594Zm0,0" transform="translate(-44.244 -1.459)" fill="#313131"/><path d="M70.641,246.443c-.394-.721-.753-1.463-1.07-2.209l-2.126.9c.346.809.739,1.625,1.168,2.412Zm0,0" transform="translate(-58.314 -211.168)" fill="#313131"/><path d="M164.449,59.141a3,3,0,0,1-1.671-2.7V49.781a4.62,4.62,0,0,1,9.239,0v6.657a3,3,0,0,1-1.671,2.7,1.156,1.156,0,0,0-.639,1.033v2.31a1.156,1.156,0,0,0,.874,1.12l5.741,1.435a3.465,3.465,0,0,1,2.624,3.361v5.632h2.31V68.4a5.767,5.767,0,0,0-4.373-5.6l-4.866-1.216v-.75a5.3,5.3,0,0,0,2.31-4.389V49.781a6.929,6.929,0,1,0-13.858,0v6.657a5.3,5.3,0,0,0,2.31,4.394v.75L157.913,62.8a5.767,5.767,0,0,0-4.375,5.6v5.632h2.31V68.4a3.464,3.464,0,0,1,2.624-3.361l5.741-1.435a1.156,1.156,0,0,0,.874-1.12v-2.31a1.155,1.155,0,0,0-.639-1.033Zm0,0" transform="translate(-132.752 -37.05)" fill="#313131"/><path d="M187.66,247.57h2.31v5.775h-2.31Zm0,0" transform="translate(-162.253 -214.052)" fill="#313131"/><path d="M307.078,247.57h2.31v5.775h-2.31Zm0,0" transform="translate(-265.503 -214.052)" fill="#313131"/><path d="M2.309,331.783a3.465,3.465,0,0,1,2.624-3.361l5.741-1.435a1.155,1.155,0,0,0,.874-1.12v-2.31a1.156,1.156,0,0,0-.639-1.04,3,3,0,0,1-1.671-2.7v-6.656a4.62,4.62,0,0,1,9.239,0v6.656a3,3,0,0,1-1.671,2.7,1.156,1.156,0,0,0-.639,1.039v2.31a1.155,1.155,0,0,0,.874,1.12l5.741,1.435a3.465,3.465,0,0,1,2.624,3.355v2.31h2.31v-2.31a5.767,5.767,0,0,0-4.373-5.6l-4.866-1.212v-.75a5.3,5.3,0,0,0,2.31-4.388v-6.667a6.929,6.929,0,0,0-13.858,0v6.656a5.3,5.3,0,0,0,2.31,4.394v.751l-4.864,1.216A5.767,5.767,0,0,0,0,331.783v2.31H2.31v-2.31Zm0,0" transform="translate(0 -264.774)" fill="#313131"/><path d="M330.421,326.178l-4.866-1.212v-.75a5.3,5.3,0,0,0,2.31-4.389V313.16a6.929,6.929,0,0,0-13.858,0v6.657a5.3,5.3,0,0,0,2.31,4.394v.75l-4.864,1.216a5.767,5.767,0,0,0-4.375,5.6v2.31h2.31v-2.31a3.464,3.464,0,0,1,2.624-3.361l5.741-1.435a1.155,1.155,0,0,0,.874-1.12v-2.31a1.155,1.155,0,0,0-.639-1.04,3,3,0,0,1-1.671-2.7v-6.656a4.619,4.619,0,1,1,9.239,0v6.656a3,3,0,0,1-1.671,2.7,1.156,1.156,0,0,0-.639,1.039v2.31a1.155,1.155,0,0,0,.875,1.12l5.741,1.435a3.466,3.466,0,0,1,2.624,3.355v2.31h2.31v-2.31A5.767,5.767,0,0,0,330.421,326.178Zm0,0" transform="translate(-265.503 -264.771)" fill="#313131"/><path d="M131.5,23.124a23.1,23.1,0,1,0-26.562,22.809v2.6a1.155,1.155,0,0,0-1.155,1.155V64.7a4.62,4.62,0,0,0,9.239,0V49.686a1.155,1.155,0,0,0-1.155-1.155v-2.6A23.114,23.114,0,0,0,131.5,23.124Zm-43.885,0A20.787,20.787,0,1,1,108.4,43.912,20.788,20.788,0,0,1,87.61,23.124Zm23.1,41.575a2.31,2.31,0,1,1-4.619,0V50.841h4.619Zm-1.155-16.168h-2.31V46.163c.384.02.765.059,1.155.059s.771-.04,1.155-.059Zm0,0" transform="translate(-73.752 0)" fill="#313131"/></g></g></svg>