<svg xmlns="http://www.w3.org/2000/svg" width="173" height="128.319" viewBox="0 0 173 128.319"><g transform="translate(-240 -3816.681)"><text transform="translate(240 3935)" fill="#313131" font-size="40" font-family="SegoeUI, Segoe UI"><tspan x="0" y="0">18+ Years</tspan></text><g transform="translate(291.973 3797.873)"><g transform="translate(0 18.808)"><g transform="translate(0 0)"><path d="M2.389,76.791V29.8H18.6V18.808H11.2v8.6H0V79.18H48.186V76.791H2.389ZM13.587,21.2h2.628V27.41H13.587Z" transform="translate(0 -18.808)" fill="#313131"/></g></g><g transform="translate(5.974 18.808)"><g transform="translate(0 0)"><path d="M88.118,27.41v-8.6H80.711v8.6H55.4V29.8H96.928v7.168H39.184v2.389H99.317V27.41Zm-2.389,0H83.1V21.2h2.628Z" transform="translate(-39.184 -18.808)" fill="#313131"/></g></g><g transform="translate(51.77 42.941)"><path d="M353.929,199.07V177.11H351.54v21.959a13.142,13.142,0,1,0,2.389,0Zm-1.195,23.837a10.752,10.752,0,1,1,10.752-10.752A10.765,10.765,0,0,1,352.734,222.907Z" transform="translate(-339.593 -177.11)" fill="#313131"/></g><g transform="translate(63.717 70.817)"><path d="M420.348,365.941v-5.974h-2.389v8.363h8.363v-2.389Z" transform="translate(-417.959 -359.967)" fill="#313131"/></g><g transform="translate(23.894 43.339)"><path d="M156.733,179.722v7.168H163.9v-7.168Zm4.779,4.779h-2.389v-2.389h2.389Z" transform="translate(-156.733 -179.722)" fill="#313131"/></g><g transform="translate(35.044 43.339)"><path d="M229.875,179.722v7.168h7.168v-7.168Zm4.779,4.779h-2.389v-2.389h2.389Z" transform="translate(-229.875 -179.722)" fill="#313131"/></g><g transform="translate(46.195 43.339)"><path d="M303.018,179.722v7.168h7.168v-7.168ZM307.8,184.5h-2.389v-2.389H307.8Z" transform="translate(-303.018 -179.722)" fill="#313131"/></g><g transform="translate(12.743 54.49)"><g transform="translate(0 0)"><path d="M83.59,252.865v7.168h7.168v-7.168Zm4.779,4.779H85.979v-2.389h2.389v2.389Z" transform="translate(-83.59 -252.865)" fill="#313131"/></g></g><g transform="translate(23.894 54.49)"><g transform="translate(0 0)"><path d="M156.733,252.865v7.168H163.9v-7.168Zm4.779,4.779h-2.389v-2.389h2.389Z" transform="translate(-156.733 -252.865)" fill="#313131"/></g></g><g transform="translate(35.044 54.49)"><g transform="translate(0 0)"><path d="M229.875,252.865v7.168h7.168v-7.168Zm4.779,4.779h-2.389v-2.389h2.389Z" transform="translate(-229.875 -252.865)" fill="#313131"/></g></g><g transform="translate(46.195 54.49)"><g transform="translate(0 0)"><path d="M303.018,252.865v7.168h7.168v-7.168Zm4.779,4.779h-2.389v-2.389H307.8Z" transform="translate(-303.018 -252.865)" fill="#313131"/></g></g><g transform="translate(12.743 65.64)"><path d="M83.59,326.008v7.168h7.168v-7.168Zm4.779,4.779H85.979V328.4h2.389v2.389Z" transform="translate(-83.59 -326.008)" fill="#313131"/></g><g transform="translate(23.894 65.64)"><path d="M156.733,326.008v7.168H163.9v-7.168Zm4.779,4.779h-2.389V328.4h2.389Z" transform="translate(-156.733 -326.008)" fill="#313131"/></g><g transform="translate(35.044 65.64)"><path d="M229.875,326.008v7.168h7.168v-7.168Zm4.779,4.779h-2.389V328.4h2.389Z" transform="translate(-229.875 -326.008)" fill="#313131"/></g></g></g></svg>