<svg xmlns="http://www.w3.org/2000/svg" width="40" height="40" viewBox="0 0 40 40">
  <g id="Group_229" data-name="Group 229" transform="translate(-506 -983)">
    <rect id="Rectangle_67" data-name="Rectangle 67" width="40" height="40" transform="translate(506 983)" fill="#5fc7c9" opacity="0"/>
    <g id="retirement-plan" transform="translate(506 983)">
      <path id="Path_149" data-name="Path 149" d="M7,39.529A7.529,7.529,0,1,0,14.529,32,7.538,7.538,0,0,0,7,39.529Zm2.738.684H8.369V38.845H9.738Zm9.583-1.369H20.69v1.369H19.321Zm-2.053-1.369H15.9a1.369,1.369,0,1,0-1.369,1.369,2.732,2.732,0,0,1,.684,5.379V45.69H13.845V44.224a2.734,2.734,0,0,1-2.053-2.641H13.16a1.369,1.369,0,1,0,1.369-1.369,2.732,2.732,0,0,1-.684-5.379V33.369h1.369v1.466A2.734,2.734,0,0,1,17.267,37.476Z" transform="translate(-4.262 -12.15)" fill="#fcd770"/>
      <path id="Path_150" data-name="Path 150" d="M13.267,25.25l-.684.513A17.232,17.232,0,0,1,3,29.171v7.206A13.753,13.753,0,0,0,13.267,49.7a13.753,13.753,0,0,0,10.267-13.32V29.171a17.228,17.228,0,0,1-9.583-3.408Zm8.9,12.15a8.9,8.9,0,1,1-8.9-8.9A8.909,8.909,0,0,1,22.166,37.4Z" transform="translate(-3 -10.02)" fill="#aab2bd"/>
      <path id="Path_151" data-name="Path 151" d="M48.03,7.726,45.108,4.8A6.124,6.124,0,0,0,40.752,3h-15.5a4.8,4.8,0,0,0-2.466.682L21,4.756v6.457h2.945l.172.115a7.446,7.446,0,0,0,4.141,1.254h5.062a1.369,1.369,0,1,0,0-2.738H28.529V8.476h1.086L31.35,6.741a3.4,3.4,0,0,1,2.42-1h7.314a3.4,3.4,0,0,1,2.42,1L46.26,9.5a1.2,1.2,0,0,0,.842.349h.086a1.192,1.192,0,0,0,1.191-1.191V8.568A1.2,1.2,0,0,0,48.03,7.726Z" transform="translate(-8.679 -3)" fill="#f0d0b4"/>
      <path id="Path_152" data-name="Path 152" d="M3,3H13.952v9.583H3Z" transform="translate(-3 -3)" fill="#b4dd7f"/>
      <path id="Path_153" data-name="Path 153" d="M54.217,57H48.637l-.456,2.738h6.6L54.322,57Z" transform="translate(-17.255 -20.038)" fill="#b27946"/>
      <path id="Path_154" data-name="Path 154" d="M35,21.738a1.369,1.369,0,0,0,2.738,0V19H35Z" transform="translate(-13.097 -8.048)" fill="#d3a06c"/>
      <path id="Path_155" data-name="Path 155" d="M46.4,14.476v26.01h2.738V14.476A6.825,6.825,0,0,0,46.646,9.2l.044-.053A2.044,2.044,0,0,0,45.948,9H38.634a2.039,2.039,0,0,0-1.452.6l-.767.767h1.77a2.719,2.719,0,0,1,1.821.708,4.059,4.059,0,0,1,2.285-.708A4.111,4.111,0,0,1,46.4,14.476Z" transform="translate(-13.543 -4.893)" fill="#d3a06c"/>
    </g>
  </g>
</svg>
