<svg xmlns="http://www.w3.org/2000/svg" width="40" height="40" viewBox="0 0 40 40">
  <g id="Group_228" data-name="Group 228" transform="translate(-275 -983)">
    <rect id="Rectangle_66" data-name="Rectangle 66" width="40" height="40" transform="translate(275 983)" fill="#5fc7c9" opacity="0"/>
    <g id="calendar-and-clock-time-administration-and-organization-tools-symbol" transform="translate(275 983)">
      <g id="Group_226" data-name="Group 226">
        <path id="Path_144" data-name="Path 144" d="M334.938,325.25a9.691,9.691,0,0,0-9.688-9.687c-.21,0-.418.009-.625.022a9.687,9.687,0,0,0-9,8.572,9.631,9.631,0,0,0,.152,3.125,9.688,9.688,0,0,0,19.16-2.031Zm-9.688,6.406a6.406,6.406,0,1,1,6.406-6.406A6.406,6.406,0,0,1,325.25,331.656Z" transform="translate(-294.938 -294.937)" fill="#50dbc1"/>
        <path id="Path_145" data-name="Path 145" d="M402.469,396.844h-2.187v3.438h-3.437v2.187h5.625v-2.187h0Z" transform="translate(-370.906 -370.906)" fill="#50dbc1"/>
        <path id="Path_146" data-name="Path 146" d="M94.329,0a1.1,1.1,0,0,0-1.094,1.094V6.25a1.1,1.1,0,0,0,1.094,1.094h.938A1.1,1.1,0,0,0,96.36,6.25V1.094A1.1,1.1,0,0,0,95.266,0Z" transform="translate(-87.141)" fill="#4d5c7d"/>
        <path id="Path_147" data-name="Path 147" d="M357.3,0A1.1,1.1,0,0,0,356.2,1.094V6.25A1.1,1.1,0,0,0,357.3,7.344h.938a1.1,1.1,0,0,0,1.094-1.094V1.094A1.1,1.1,0,0,0,358.235,0Z" transform="translate(-332.923)" fill="#4d5c7d"/>
        <path id="Path_148" data-name="Path 148" d="M2.5,83.734H17.969a11.875,11.875,0,0,1-.233-2.344c0-.263.012-.523.028-.781H4.688a1.875,1.875,0,0,1-1.875-1.875v-15H29.688v5.8c.207-.011.415-.017.625-.017a11.878,11.878,0,0,1,2.188.205V57.484a2.5,2.5,0,0,0-2.5-2.5H27.969V57.64A2.659,2.659,0,0,1,25.312,60.3h-.938a2.659,2.659,0,0,1-2.656-2.656V54.984H10.781V57.64A2.659,2.659,0,0,1,8.125,60.3H7.187A2.659,2.659,0,0,1,4.531,57.64V54.984H2.5a2.5,2.5,0,0,0-2.5,2.5v23.75A2.5,2.5,0,0,0,2.5,83.734Z" transform="translate(0 -51.39)" fill="#f47160"/>
        <circle id="Ellipse_11" data-name="Ellipse 11" cx="2.481" cy="2.481" r="2.481" transform="translate(6.328 14.551)" fill="#e56353"/>
        <circle id="Ellipse_12" data-name="Ellipse 12" cx="2.481" cy="2.481" r="2.481" transform="translate(13.769 14.551)" fill="#e56353"/>
        <circle id="Ellipse_13" data-name="Ellipse 13" cx="2.481" cy="2.481" r="2.481" transform="translate(21.211 14.551)" fill="#e56353"/>
        <circle id="Ellipse_14" data-name="Ellipse 14" cx="2.481" cy="2.481" r="2.481" transform="translate(13.769 22.051)" fill="#e56353"/>
        <circle id="Ellipse_15" data-name="Ellipse 15" cx="2.481" cy="2.481" r="2.481" transform="translate(6.328 22.051)" fill="#e56353"/>
      </g>
    </g>
  </g>
</svg>
