<svg xmlns="http://www.w3.org/2000/svg" width="40" height="40" viewBox="0 0 40 40">
  <g id="Group_227" data-name="Group 227" transform="translate(-79 -983)">
    <rect id="Rectangle_65" data-name="Rectangle 65" width="40" height="40" transform="translate(79 983)" fill="#5fc7c9" opacity="0"/>
    <g id="healthcare-covid19-coronavirus-hand-hearth" transform="translate(79 983)">
      <path id="Path_133" data-name="Path 133" d="M12.437,25.452,9.323,16.481a2.148,2.148,0,0,0-2.447-1.595,2.067,2.067,0,0,0-1.567,2.55l3.2,9.892Z" transform="translate(-3.865 -6.843)" fill="#ffac96"/>
      <path id="Path_134" data-name="Path 134" d="M48.29,25.452,51.4,16.481a2.148,2.148,0,0,1,2.447-1.595,2.067,2.067,0,0,1,1.567,2.55l-3.2,9.892Z" transform="translate(-17.321 -6.843)" fill="#ffac96"/>
      <path id="Path_135" data-name="Path 135" d="M18.23,30.422,12.153,26.86a2.058,2.058,0,0,0-2.612.467L7.323,20.481a2.148,2.148,0,0,0-2.447-1.595,2.067,2.067,0,0,0-1.567,2.55L6.3,32.593a2.714,2.714,0,0,0,.832,1.347l4.647,4.131a2.75,2.75,0,0,1,.921,2.055v2.2h8.249v-7.16a5.5,5.5,0,0,0-2.718-4.745Z" transform="translate(-3.24 -8.093)" fill="#ffbcab"/>
      <path id="Path_136" data-name="Path 136" d="M51.072,18.886a2.148,2.148,0,0,0-2.447,1.595L46.4,27.327a2.058,2.058,0,0,0-2.612-.467l-6.077,3.562A5.5,5.5,0,0,0,35,35.167v7.16h8.249v-2.2a2.75,2.75,0,0,1,.921-2.055l4.647-4.131a2.714,2.714,0,0,0,.832-1.347l2.99-11.157a2.067,2.067,0,0,0-1.567-2.55Z" transform="translate(-13.167 -8.093)" fill="#ffbcab"/>
      <path id="Path_137" data-name="Path 137" d="M34,53v5.5h9.624V53H34Z" transform="translate(-12.855 -18.766)" fill="#7bb7ff"/>
      <path id="Path_138" data-name="Path 138" d="M25.624,53H16v5.5h9.624Z" transform="translate(-7.228 -18.766)" fill="#7bb7ff"/>
      <path id="Path_139" data-name="Path 139" d="M36.214,13.759l-.488.488L26.975,23l-8.751-8.751-.488-.488a6.186,6.186,0,1,1,8.752-8.745l.487.489.488-.488a6.186,6.186,0,1,1,8.752,8.745Z" transform="translate(-7.205 -3.2)" fill="#d80027"/>
      <path id="Path_140" data-name="Path 140" d="M40.926,5.015a6.118,6.118,0,0,0-5.065-1.773,6.183,6.183,0,0,1,3.69,10.518l-.488.488L31,22.31l.687.687,8.751-8.751.488-.488A6.187,6.187,0,0,0,40.926,5.015Z" transform="translate(-11.917 -3.2)" fill="#bd0022"/>
      <path id="Path_141" data-name="Path 141" d="M31.5,18.249V15.5h2.75V12.75H31.5V10H28.75v2.75H26V15.5h2.75v2.75Z" transform="translate(-10.354 -5.325)" fill="#f1f2f2"/>
      <g id="Group_224" data-name="Group 224" transform="translate(5.823 19.861)">
        <path id="Path_142" data-name="Path 142" d="M48.57,33.2l-4.595,2.543a.6.6,0,1,0,.6,1.031l4-2.2a2.062,2.062,0,0,0,.907-2.481A2.042,2.042,0,0,1,48.57,33.2Z" transform="translate(-21.702 -32.091)" fill="#ffac96"/>
        <path id="Path_143" data-name="Path 143" d="M12.738,33.2l4.595,2.543a.6.6,0,1,1-.6,1.031l-4-2.2a2.062,2.062,0,0,1-.907-2.481,2.042,2.042,0,0,0,.907,1.106Z" transform="translate(-11.71 -32.091)" fill="#ffac96"/>
      </g>
    </g>
  </g>
</svg>
