<svg xmlns="http://www.w3.org/2000/svg" width="19.333" height="20.622" viewBox="0 0 19.333 20.622">
  <g id="share_1_" data-name="share (1)" transform="translate(-16)">
    <g id="Group_869" data-name="Group 869" transform="translate(16)">
      <path id="Path_197" data-name="Path 197" d="M31.708,13.372a3.622,3.622,0,0,0-2.915,1.473L23.1,11.937a3.625,3.625,0,0,0-.118-2.382l5.964-3.583a3.61,3.61,0,1,0-.62-1.037L22.35,8.528a3.625,3.625,0,1,0,.222,4.5l5.674,2.9a3.625,3.625,0,1,0,3.462-2.55Zm0-12.164a2.417,2.417,0,1,1-2.417,2.417A2.419,2.419,0,0,1,31.708,1.208ZM19.625,13.332a2.417,2.417,0,1,1,2.417-2.417A2.419,2.419,0,0,1,19.625,13.332Zm12.083,6.082A2.417,2.417,0,1,1,34.125,17,2.419,2.419,0,0,1,31.708,19.414Z" transform="translate(-16)" fill="#121f3e"/>
    </g>
  </g>
</svg>
